<svg width="36" height="36" viewBox="0 0 36 36" fill="none" xmlns="http://www.w3.org/2000/svg">
<path d="M11.52 2.16016C6.35936 2.16016 2.15997 6.35954 2.15997 11.5202V24.4802C2.15997 29.6408 6.35936 33.8402 11.52 33.8402H24.48C29.6406 33.8402 33.84 29.6408 33.84 24.4802V11.5202C33.84 6.35954 29.6406 2.16016 24.48 2.16016H11.52ZM11.52 3.60016H24.48C28.8622 3.60016 32.4 7.13789 32.4 11.5202V24.4802C32.4 28.8624 28.8622 32.4002 24.48 32.4002H11.52C7.1377 32.4002 3.59997 28.8624 3.59997 24.4802V11.5202C3.59997 7.13789 7.1377 3.60016 11.52 3.60016ZM26.64 7.92016C26.2581 7.92016 25.8918 8.07187 25.6217 8.34192C25.3517 8.61197 25.2 8.97824 25.2 9.36016C25.2 9.74207 25.3517 10.1083 25.6217 10.3784C25.8918 10.6484 26.2581 10.8002 26.64 10.8002C27.0219 10.8002 27.3882 10.6484 27.6582 10.3784C27.9283 10.1083 28.08 9.74207 28.08 9.36016C28.08 8.97824 27.9283 8.61197 27.6582 8.34192C27.3882 8.07187 27.0219 7.92016 26.64 7.92016ZM18 10.0802C13.6344 10.0802 10.08 13.6346 10.08 18.0002C10.08 22.3657 13.6344 25.9202 18 25.9202C22.3655 25.9202 25.92 22.3657 25.92 18.0002C25.92 13.6346 22.3655 10.0802 18 10.0802ZM18 11.5202C21.5873 11.5202 24.48 14.4128 24.48 18.0002C24.48 21.5875 21.5873 24.4802 18 24.4802C14.4126 24.4802 11.52 21.5875 11.52 18.0002C11.52 14.4128 14.4126 11.5202 18 11.5202Z" fill="#175B06"/>
</svg>
