<svg width="36" height="36" viewBox="0 0 36 36" fill="none" xmlns="http://www.w3.org/2000/svg">
<path d="M11.52 2.16003C6.35936 2.16003 2.15997 6.35942 2.15997 11.52V24.48C2.15997 29.6406 6.35936 33.84 11.52 33.84H24.48C29.6406 33.84 33.84 29.6406 33.84 24.48V11.52C33.84 6.35942 29.6406 2.16003 24.48 2.16003H11.52ZM11.52 3.60003H24.48C28.8622 3.60003 32.4 7.13777 32.4 11.52V24.48C32.4 28.8623 28.8622 32.4 24.48 32.4H11.52C7.1377 32.4 3.59997 28.8623 3.59997 24.48V11.52C3.59997 7.13777 7.1377 3.60003 11.52 3.60003ZM26.64 7.92003C26.2581 7.92003 25.8918 8.07175 25.6217 8.3418C25.3517 8.61185 25.2 8.97812 25.2 9.36003C25.2 9.74195 25.3517 10.1082 25.6217 10.3783C25.8918 10.6483 26.2581 10.8 26.64 10.8C27.0219 10.8 27.3882 10.6483 27.6582 10.3783C27.9283 10.1082 28.08 9.74195 28.08 9.36003C28.08 8.97812 27.9283 8.61185 27.6582 8.3418C27.3882 8.07175 27.0219 7.92003 26.64 7.92003ZM18 10.08C13.6344 10.08 10.08 13.6345 10.08 18C10.08 22.3656 13.6344 25.92 18 25.92C22.3655 25.92 25.92 22.3656 25.92 18C25.92 13.6345 22.3655 10.08 18 10.08ZM18 11.52C21.5873 11.52 24.48 14.4127 24.48 18C24.48 21.5874 21.5873 24.48 18 24.48C14.4126 24.48 11.52 21.5874 11.52 18C11.52 14.4127 14.4126 11.52 18 11.52Z" fill="#FBFBFB"/>
</svg>
