<svg width="115" height="36" viewBox="0 0 115 36" fill="none" xmlns="http://www.w3.org/2000/svg">
<g clip-path="url(#clip0)">
<path d="M34.1228 11.1035V15.4473H31.4801V0.478088H36.0622C40.0476 0.478088 42.0509 2.6713 42.0509 5.80142C42.0509 8.93155 40.0689 11.1035 35.5507 11.1035H34.1228ZM34.1228 2.90553V8.7612H35.8704C38.3426 8.7612 39.1951 7.44101 39.1951 5.80142C39.1951 4.16184 38.3639 2.90553 35.8704 2.90553H34.1228Z" fill="#FBFBFB"/>
<path d="M46.9526 0.478088H56.6901V2.90553H49.5931V7.10032H56.0294V9.44259H49.5931V13.0199H56.6901V15.4473H46.9504L46.9526 0.478088Z" fill="#FBFBFB"/>
<path d="M62.3186 0.478088H67.1138C71.0992 0.478088 73.1025 2.6713 73.1025 5.80142C73.1025 7.35584 72.314 9.54905 70.3107 10.5285C71.4402 11.508 71.7599 13.0625 73.5501 13.0625H74.1468V15.4047C73.6765 15.4961 73.198 15.5389 72.7189 15.5325C68.9893 15.5325 69.2024 12.1043 67.3909 11.0822C67.1351 11.1035 66.8794 11.1035 66.6023 11.1035H64.9613V15.4473H62.3186V0.478088ZM64.9613 2.90553V8.7612H66.9199C69.3921 8.7612 70.2446 7.44101 70.2446 5.80142C70.2446 4.16184 69.4134 2.90553 66.9199 2.90553H64.9613Z" fill="#FBFBFB"/>
<path d="M82.9274 15.705C81.1951 15.6745 79.5026 15.1812 78.0256 14.2762L78.9421 11.8914C80.1782 12.7218 81.6721 13.2328 83.0127 13.2328C84.7837 13.2328 85.5935 12.3598 85.5935 11.4016C85.5935 10.4008 85.0394 9.80461 82.3307 8.80382C79.4109 7.73916 78.4093 6.35509 78.4093 4.56645C78.4071 2.30935 80.24 0.222608 83.4368 0.222608C84.8786 0.220156 86.2989 0.571104 87.5734 1.24469L86.7209 3.58696C85.8471 3.09721 84.5258 2.58617 83.375 2.58617C81.7957 2.58617 81.0711 3.4592 81.0711 4.50257C81.0711 5.46077 81.8831 6.05698 83.993 6.82354C87.339 8.12244 88.298 9.44262 88.298 11.4016C88.298 14.0633 86.2734 15.705 82.9274 15.705Z" fill="#FBFBFB"/>
<path d="M93.3896 0.478088H96.0324V20.3363H93.3896V0.478088Z" fill="#FBFBFB"/>
<path d="M102.255 0.478088H104.898V13.0199H111.995V15.4473H102.255V0.478088Z" fill="#FBFBFB"/>
<path d="M0 19.8849H4.79522C8.78058 19.8849 10.7839 22.0781 10.7839 25.2082C10.7839 26.7626 9.99537 28.9559 7.99203 29.9353C9.12157 30.9148 9.44125 32.4693 11.2315 32.4693H11.8282V34.8115C11.3579 34.9029 10.8794 34.9457 10.4003 34.9393C6.67068 34.9393 6.8838 31.5111 5.07228 30.489C4.81653 30.5103 4.56079 30.5103 4.28373 30.5103H2.6427V34.8541H0V19.8849ZM2.6427 22.3123V28.168H4.60341C7.07561 28.168 7.9281 26.8478 7.9281 25.2082C7.9281 23.5686 7.09692 22.3123 4.60341 22.3123H2.6427Z" fill="#FBFBFB"/>
<path d="M23.6777 19.6293C28.3237 19.6293 31.6911 22.8872 31.6911 27.3588C31.6911 31.7665 28.2598 35.0883 23.6777 35.0883C19.0956 35.0883 15.6857 31.7878 15.6857 27.3588C15.6857 23.0363 19.1809 19.6293 23.6777 19.6293ZM23.699 32.7673C26.5975 32.7673 28.8565 30.4464 28.8565 27.4014C28.8565 24.3565 26.704 22.0142 23.699 22.0142C20.7366 22.0142 18.5415 24.3352 18.5415 27.4014C18.5415 30.4038 20.8006 32.7673 23.699 32.7673Z" fill="#FBFBFB"/>
<path d="M52.2146 34.8541H49.6145L49.5506 26.2515L44.9259 34.9818H44.0094L39.3421 26.4006L39.2995 34.8541H36.7207L37.1469 19.821H38.3191L44.5422 30.7232L50.6162 19.8124H51.7884L52.2146 34.8541Z" fill="#FBFBFB"/>
<path d="M67.8789 31.2768H60.7181V34.8541H58.0541V26.3154C58.0541 21.7161 60.3558 19.6293 64.2559 19.6293C68.156 19.6293 70.5429 21.7161 70.5429 26.3154V34.8541H67.8789V31.2768ZM60.7181 29.1815C62.0394 29.1602 67.1756 29.1602 67.8789 29.1602V26.3282C67.8789 23.1342 66.3871 22.0483 64.2985 22.0483C62.2099 22.0483 60.7181 23.2833 60.7181 26.3069V29.1815Z" fill="#FBFBFB"/>
<path d="M76.5743 19.8849H81.3696C85.3549 19.8849 87.3583 22.0781 87.3583 25.2082C87.3583 26.7626 86.5697 28.9559 84.5664 29.9353C85.6959 30.9148 86.0156 32.4693 87.8058 32.4693H88.4025V34.8115C87.9322 34.9029 87.4537 34.9457 86.9746 34.9393C83.245 34.9393 83.4581 31.5111 81.6466 30.489C81.3909 30.5103 81.1351 30.5103 80.8581 30.5103H79.217V34.8541H76.5743V19.8849ZM79.217 22.3123V28.168H81.1778C83.65 28.168 84.5024 26.8478 84.5024 25.2082C84.5024 23.5686 83.6713 22.3123 81.1778 22.3123H79.217Z" fill="#FBFBFB"/>
<path d="M93.3896 19.8849H96.0324V34.8541H93.3896V19.8849Z" fill="#FBFBFB"/>
<path d="M102.253 19.7997H103.084L112.357 29.4456V19.8849H115V34.9605H114.297L104.898 25.5617V34.8456H102.253V19.7997Z" fill="#FBFBFB"/>
<path d="M1.98743 4.9594C1.237 4.23585 0.91746 3.51231 0.91746 2.82735C0.91746 1.17767 2.14235 0.222595 3.82235 0.222595C5.50234 0.222595 6.58925 1.18732 6.58925 2.61753C6.58925 4.19726 5.65726 4.86293 4.62845 5.3067L6.71513 7.23615C7.28231 6.62012 7.77768 5.9421 8.19178 5.21505L9.40215 6.07607C8.91336 6.86001 8.33942 7.58794 7.69068 8.2467L8.92768 9.50808C8.90105 9.54908 7.81656 10.6706 7.81656 10.6706L6.46579 9.29825C5.58948 9.92291 4.57519 10.3812 3.46166 10.3812C1.25152 10.3787 0 9.11736 0 7.62686C0 6.13636 0.931984 5.45623 1.98743 4.9594ZM5.4515 8.28529L2.98961 5.98442C2.32149 6.30519 1.82282 6.72002 1.82282 7.49663C1.82282 8.38176 2.48852 8.89548 3.60206 8.89548C4.26485 8.87486 4.90736 8.66288 5.4515 8.28529ZM3.63111 4.28168C4.38396 3.94885 4.96735 3.55813 4.96735 2.83459C4.97853 2.67807 4.95675 2.52095 4.90343 2.37331C4.8501 2.22567 4.7664 2.09075 4.65768 1.97721C4.54897 1.86368 4.41765 1.77403 4.27213 1.71401C4.12661 1.65399 3.97011 1.62493 3.81266 1.62868C3.65441 1.62396 3.49692 1.65227 3.3503 1.71178C3.20368 1.7713 3.07118 1.86071 2.9613 1.97427C2.85142 2.08783 2.7666 2.22304 2.71227 2.3712C2.65795 2.51936 2.63533 2.6772 2.64587 2.83459C2.64345 3.35313 3.05981 3.76796 3.63111 4.28168Z" fill="#FBFBFB"/>
<path d="M24.2433 12.8104L24.2433 15.4523L4.19014e-05 15.4523L4.19617e-05 12.8104L24.2433 12.8104Z" fill="#FBFBFB"/>
</g>
<defs>
<clipPath id="clip0">
<rect width="115" height="34.8657" fill="white" transform="translate(0 0.222595)"/>
</clipPath>
</defs>
</svg>
