<svg width="185" height="57" viewBox="0 0 185 57" fill="none" xmlns="http://www.w3.org/2000/svg">
<g clip-path="url(#clip0)">
<path d="M54.8929 17.5041V24.4921H50.6416V0.411133H58.0128C64.424 0.411133 67.6468 3.93935 67.6468 8.97476C67.6468 14.0102 64.4583 17.5041 57.19 17.5041H54.8929ZM54.8929 4.31615V13.7361H57.7042C61.6813 13.7361 63.0527 11.6124 63.0527 8.97476C63.0527 6.33716 61.7156 4.31615 57.7042 4.31615H54.8929Z" fill="#175B06"/>
<path d="M75.5327 0.411133H91.1974V4.31615H79.7806V11.0643H90.1346V14.8323H79.7806V20.587H91.1974V24.4921H75.5293L75.5327 0.411133Z" fill="#175B06"/>
<path d="M100.252 0.411133H107.966C114.377 0.411133 117.6 3.93935 117.6 8.97476C117.6 11.4753 116.331 15.0036 113.109 16.5793C114.926 18.155 115.44 20.6555 118.32 20.6555H119.28V24.4235C118.523 24.5705 117.754 24.6394 116.983 24.6291C110.983 24.6291 111.326 19.1141 108.412 17.4699C108 17.5041 107.589 17.5041 107.143 17.5041H104.503V24.4921H100.252V0.411133ZM104.503 4.31615V13.7361H107.654C111.631 13.7361 113.002 11.6124 113.002 8.97476C113.002 6.33716 111.665 4.31615 107.654 4.31615H104.503Z" fill="#175B06"/>
<path d="M133.405 24.9065C130.618 24.8574 127.895 24.0638 125.52 22.608L126.994 18.7715C128.982 20.1074 131.386 20.9295 133.542 20.9295C136.391 20.9295 137.694 19.5251 137.694 17.9836C137.694 16.3737 136.803 15.4145 132.445 13.8046C127.748 12.0919 126.137 9.86532 126.137 6.98794C126.133 3.35696 129.082 2.05242e-05 134.224 2.05242e-05C136.544 -0.0039236 138.829 0.560645 140.879 1.64424L139.508 5.41223C138.102 4.62438 135.976 3.80227 134.125 3.80227C131.584 3.80227 130.419 5.20671 130.419 6.88518C130.419 8.42663 131.725 9.38575 135.119 10.6189C140.502 12.7084 142.045 14.8322 142.045 17.9836C142.045 22.2654 138.788 24.9065 133.405 24.9065Z" fill="#175B06"/>
<path d="M150.235 0.411133H154.487V32.3569H150.235V0.411133Z" fill="#175B06"/>
<path d="M164.498 0.411133H168.749V20.587H180.166V24.4921H164.498V0.411133Z" fill="#175B06"/>
<path d="M0 31.6309H7.71405C14.1253 31.6309 17.348 35.1591 17.348 40.1945C17.348 42.6951 16.0795 46.2233 12.8567 47.799C14.6738 49.3747 15.1881 51.8753 18.068 51.8753H19.028V55.6433C18.2714 55.7903 17.5016 55.8591 16.7309 55.8488C10.7311 55.8488 11.0739 50.3338 8.15975 48.6896C7.74833 48.7239 7.33692 48.7239 6.89122 48.7239H4.2513V55.7118H0V31.6309ZM4.2513 35.5359V44.9559H7.40549C11.3825 44.9559 12.7539 42.8321 12.7539 40.1945C12.7539 37.5569 11.4168 35.5359 7.40549 35.5359H4.2513Z" fill="#175B06"/>
<path d="M38.0902 31.2197C45.5642 31.2197 50.9812 36.4607 50.9812 43.6541C50.9812 50.7448 45.4614 56.0885 38.0902 56.0885C30.7189 56.0885 25.2334 50.7791 25.2334 43.6541C25.2334 36.7005 30.8561 31.2197 38.0902 31.2197ZM38.1244 52.3548C42.7872 52.3548 46.4213 48.621 46.4213 43.7226C46.4213 38.8242 42.9586 35.0562 38.1244 35.0562C33.3589 35.0562 29.8275 38.79 29.8275 43.7226C29.8275 48.5525 33.4617 52.3548 38.1244 52.3548Z" fill="#175B06"/>
<path d="M83.9972 55.7111H79.8145L79.7116 41.8722L72.2719 55.9166H70.7976L63.2893 42.112L63.2207 55.7111H59.0723L59.758 31.5274H61.6436L71.6547 49.0657L81.4259 31.5137H83.3115L83.9972 55.7111Z" fill="#175B06"/>
<path d="M109.197 49.9569H97.6772V55.7117H93.3916V41.9756C93.3916 34.5767 97.0943 31.2197 103.368 31.2197C109.642 31.2197 113.482 34.5767 113.482 41.9756V55.7117H109.197V49.9569ZM97.6772 46.5863C99.8028 46.552 108.065 46.552 109.197 46.552V41.9962C109.197 36.858 106.797 35.111 103.437 35.111C100.077 35.111 97.6772 37.0978 97.6772 41.9619V46.5863Z" fill="#175B06"/>
<path d="M123.185 31.6309H130.899C137.31 31.6309 140.533 35.1591 140.533 40.1945C140.533 42.6951 139.264 46.2233 136.041 47.799C137.858 49.3747 138.373 51.8753 141.253 51.8753H142.213V55.6433C141.456 55.7903 140.686 55.8591 139.915 55.8488C133.916 55.8488 134.259 50.3338 131.344 48.6896C130.933 48.7239 130.521 48.7239 130.076 48.7239H127.436V55.7118H123.185V31.6309ZM127.436 35.5359V44.9559H130.59C134.567 44.9559 135.938 42.8321 135.938 40.1945C135.938 37.5569 134.601 35.5359 130.59 35.5359H127.436Z" fill="#175B06"/>
<path d="M150.235 31.6309H154.487V55.7118H150.235V31.6309Z" fill="#175B06"/>
<path d="M164.494 31.4932H165.831L180.749 47.0105V31.6302H185V55.8824H183.868L168.749 40.7624V55.6974H164.494V31.4932Z" fill="#175B06"/>
<path d="M3.19716 7.62007C1.98995 6.45611 1.47591 5.29215 1.47591 4.19026C1.47591 1.53643 3.44639 0 6.14899 0C8.85159 0 10.6001 1.55195 10.6001 3.85272C10.6001 6.39403 9.10082 7.46488 7.44577 8.17878L10.8026 11.2827C11.715 10.2917 12.5119 9.20095 13.1781 8.03134L15.1252 9.41646C14.3389 10.6776 13.4156 11.8486 12.372 12.9083L14.3619 14.9375C14.3191 15.0035 12.5745 16.8076 12.5745 16.8076L10.4015 14.6C8.99178 15.6049 7.3601 16.342 5.56875 16.342C2.01332 16.3382 0 14.309 0 11.9112C0 9.51345 1.49928 8.41933 3.19716 7.62007ZM8.76981 12.9704L4.80938 9.26902C3.73457 9.78504 2.93236 10.4524 2.93236 11.7017C2.93236 13.1256 4.00327 13.952 5.79462 13.952C6.86084 13.9189 7.89445 13.5778 8.76981 12.9704ZM5.84135 6.52983C7.05245 5.99441 7.99096 5.36587 7.99096 4.2019C8.00894 3.95011 7.97391 3.69736 7.88812 3.45985C7.80234 3.22233 7.66768 3.00529 7.4928 2.82265C7.31791 2.64001 7.10665 2.49579 6.87255 2.39923C6.63846 2.30268 6.3867 2.25593 6.13341 2.26197C5.87884 2.25437 5.62548 2.29991 5.38962 2.39565C5.15375 2.49139 4.94059 2.63523 4.76383 2.81791C4.58707 3.0006 4.45061 3.2181 4.36322 3.45645C4.27583 3.69479 4.23945 3.94872 4.25639 4.2019C4.2525 5.03608 4.92231 5.70342 5.84135 6.52983Z" fill="#175B06"/>
<path d="M39 20.25L39 24.5L-9.69803e-08 24.5L0 20.25L39 20.25Z" fill="#175B06"/>
</g>
<defs>
<clipPath id="clip0">
<rect width="185" height="56.0883" fill="white"/>
</clipPath>
</defs>
</svg>
