<svg width="119" height="146" viewBox="0 0 119 146" fill="none" xmlns="http://www.w3.org/2000/svg">
<path d="M24.6811 122.736C28.0731 122.736 29.5611 121.104 29.5611 118.752C29.5611 116.4 28.0571 114.752 25.0651 114.752H21.6251V126H23.6091V122.736H24.6811ZM24.9211 116.576C26.7931 116.576 27.4171 117.52 27.4171 118.752C27.4171 119.984 26.7771 120.976 24.9211 120.976H23.6091V116.576H24.9211ZM33.2344 126H40.5464V124.176H35.2184V121.488H40.0504V119.728H35.2184V116.576H40.5464V114.752H33.2344V126ZM44.7657 126H46.7497V122.736H47.9817C48.1897 122.736 48.3817 122.736 48.5737 122.72C49.9337 123.488 49.7737 126.064 52.5737 126.064C53.2297 126.064 53.6457 125.968 53.6457 125.968V124.208H53.1977C51.8537 124.208 51.6137 123.04 50.7657 122.304C52.2697 121.568 52.8617 119.92 52.8617 118.752C52.8617 116.4 51.3577 114.752 48.3657 114.752H44.7657V126ZM48.2217 116.576C50.0937 116.576 50.7177 117.52 50.7177 118.752C50.7177 119.984 50.0777 120.976 48.2217 120.976H46.7497V116.576H48.2217ZM64.2707 122.96C64.2707 121.488 63.5507 120.496 61.0387 119.52C59.4547 118.944 58.8467 118.496 58.8467 117.776C58.8467 116.992 59.3907 116.336 60.5747 116.336C61.4387 116.336 62.4307 116.72 63.0867 117.088L63.7267 115.328C63.0067 114.912 61.8227 114.56 60.6227 114.56C58.2227 114.56 56.8467 116.128 56.8467 117.824C56.8467 119.168 57.5987 120.208 59.7907 121.008C61.8227 121.76 62.2387 122.208 62.2387 122.96C62.2387 123.68 61.6307 124.336 60.3027 124.336C59.2947 124.336 58.1747 123.952 57.2467 123.328L56.5587 125.12C57.5827 125.744 58.9107 126.192 60.2387 126.192C62.7507 126.192 64.2707 124.96 64.2707 122.96ZM68.0938 126H70.0778V114.752H68.0938V126ZM74.7501 126H82.0621V124.176H76.7341V114.752H74.7501V126ZM90.7324 123.04C90.7324 124.768 92.1724 126.224 94.7164 126.224C95.9964 126.224 97.1644 125.696 98.1724 124.976L99.7244 126.56C99.7244 126.56 100.972 125.264 101.004 125.216L99.5804 123.76C100.812 122.512 101.548 121.264 101.548 121.264L100.156 120.272C100.156 120.272 99.5004 121.472 98.4444 122.592L96.0444 120.368C97.2284 119.856 98.3004 119.088 98.3004 117.264C98.3004 115.616 97.0364 114.496 95.1164 114.496C93.1964 114.496 91.7884 115.6 91.7884 117.504C91.7884 118.288 92.1564 119.12 93.0204 119.968C91.8044 120.528 90.7324 121.312 90.7324 123.04ZM94.8764 124.512C93.5964 124.512 92.8284 123.92 92.8284 122.896C92.8284 122 93.4044 121.52 94.1724 121.152L97.0044 123.808C96.3644 124.224 95.6444 124.512 94.8764 124.512ZM93.7724 117.504C93.7724 116.736 94.2684 116.112 95.1164 116.112C95.9644 116.112 96.4444 116.752 96.4444 117.504C96.4444 118.352 95.7724 118.8 94.9084 119.184C94.2524 118.576 93.7724 118.112 93.7724 117.504ZM17.8282 142H19.8122V138.736H21.0442C21.2522 138.736 21.4442 138.736 21.6362 138.72C22.9962 139.488 22.8362 142.064 25.6362 142.064C26.2922 142.064 26.7082 141.968 26.7082 141.968V140.208H26.2602C24.9162 140.208 24.6762 139.04 23.8282 138.304C25.3322 137.568 25.9242 135.92 25.9242 134.752C25.9242 132.4 24.4202 130.752 21.4282 130.752H17.8282V142ZM21.2842 132.576C23.1562 132.576 23.7802 133.52 23.7802 134.752C23.7802 135.984 23.1402 136.976 21.2842 136.976H19.8122V132.576H21.2842ZM29.6078 136.368C29.6078 139.696 32.1678 142.176 35.6078 142.176C39.0478 142.176 41.6238 139.68 41.6238 136.368C41.6238 133.008 39.0958 130.56 35.6078 130.56C32.2318 130.56 29.6078 133.12 29.6078 136.368ZM31.7518 136.4C31.7518 134.096 33.3998 132.352 35.6238 132.352C37.8798 132.352 39.4958 134.096 39.4958 136.4C39.4958 138.688 37.7998 140.432 35.6238 140.432C33.4478 140.432 31.7518 138.656 31.7518 136.4ZM56.7146 130.704H55.8346L51.2746 138.896L46.6026 130.704H45.7226L45.4026 142H47.3386L47.3706 135.648L50.8746 142.096H51.5626L55.0346 135.536L55.0826 142H57.0346L56.7146 130.704ZM68.7949 142H70.7949V135.584C70.7949 132.128 69.0029 130.56 66.0749 130.56C63.1469 130.56 61.4189 132.128 61.4189 135.584V142H63.4189V139.312H68.7949V142ZM63.4189 135.584C63.4189 133.312 64.5389 132.384 66.1069 132.384C67.6749 132.384 68.7949 133.2 68.7949 135.6V137.728C68.2669 137.728 64.4109 137.728 63.4189 137.744V135.584ZM75.3282 142H77.3122V138.736H78.5442C78.7522 138.736 78.9442 138.736 79.1362 138.72C80.4962 139.488 80.3362 142.064 83.1362 142.064C83.7922 142.064 84.2082 141.968 84.2082 141.968V140.208H83.7602C82.4162 140.208 82.1762 139.04 81.3282 138.304C82.8322 137.568 83.4242 135.92 83.4242 134.752C83.4242 132.4 81.9202 130.752 78.9282 130.752H75.3282V142ZM78.7842 132.576C80.6562 132.576 81.2802 133.52 81.2802 134.752C81.2802 135.984 80.6402 136.976 78.7842 136.976H77.3122V132.576H78.7842ZM87.9532 142H89.9372V130.752H87.9532V142ZM94.6094 142H96.5934V135.024L103.649 142.08H104.177V130.752H102.193V137.936L95.2334 130.688H94.6094V142Z" fill="#175B06"/>
<g clip-path="url(#clip0)">
<path d="M32.4043 58.4527V64.1893C32.4043 65.8337 31.6242 67.1694 30.6571 67.1694H9.09263C8.12554 67.1694 7.34546 65.8337 7.34546 64.1893V58.4527C7.34546 56.8083 8.12554 55.4726 9.09263 55.4726H30.6571C31.6242 55.4726 32.4043 56.8083 32.4043 58.4527Z" fill="#175B06"/>
<path d="M89.7565 76.9664C83.0616 76.7056 77.0507 67.7015 75.8218 65.3813C75.7892 65.3188 75.7444 65.2633 75.6901 65.2182C75.6358 65.173 75.573 65.1391 75.5054 65.1183C75.4378 65.0975 75.3667 65.0903 75.2963 65.0971C75.2259 65.1039 75.1575 65.1245 75.0952 65.1578C70.949 66.9831 66.9096 67.8186 62.2291 68.3508C62.126 68.3625 62.028 68.4021 61.9457 68.4651C61.8634 68.5282 61.7999 68.6123 61.762 68.7086C61.7241 68.8049 61.7132 68.9096 61.7306 69.0116C61.7479 69.1136 61.7928 69.2089 61.8605 69.2874C67.6897 76.0883 69.3407 89.3178 85.9041 89.3178C87.4322 89.3178 88.7626 89.2379 89.8473 89.1368C90.7264 89.0508 91.5418 88.6418 92.1345 87.9895C92.7272 87.3372 93.0547 86.4884 93.0531 85.6086V80.4414C93.0597 79.5505 92.7204 78.6915 92.1061 78.0439C91.4917 77.3964 90.6499 77.0103 89.7565 76.9664Z" fill="#175B06"/>
<path d="M76.9011 62.4969C84.6752 57.0529 87.8063 47.5965 87.8063 40.6785C87.8063 25.033 77.7614 14.0706 57.7784 14.0706H37.2985C36.3534 14.0706 35.4469 14.4446 34.7785 15.1102C34.1102 15.7759 33.7347 16.6787 33.7347 17.6201V85.3424C33.7347 86.2838 34.1102 87.1867 34.7785 87.8523C35.4469 88.518 36.3534 88.8919 37.2985 88.8919H43.427C44.3712 88.8905 45.2763 88.5159 45.9435 87.8504C46.6107 87.1849 46.9855 86.2829 46.9855 85.3424V70.7241C46.9869 69.7836 47.363 68.8822 48.0312 68.2176C48.6993 67.5531 49.605 67.1799 50.5493 67.1799H55.2137C56.2823 67.1799 57.2761 67.1799 58.2646 67.132C64.3931 66.9458 72.1939 65.163 75.389 63.4069C75.8485 63.1355 76.6233 62.6832 76.9011 62.4969ZM50.5493 55.4724C49.6041 55.4724 48.6976 55.0985 48.0293 54.4328C47.3609 53.7672 46.9855 52.8643 46.9855 51.9229V29.7479C46.9869 28.8075 47.363 27.906 48.0312 27.2415C48.6993 26.577 49.605 26.2038 50.5493 26.2038H56.8166C69.3194 26.2038 73.4869 32.4832 73.4869 40.6785C73.4869 48.8737 69.2125 55.4724 56.8166 55.4724H50.5493Z" fill="#175B06"/>
</g>
<defs>
<clipPath id="clip0">
<rect width="85.697" height="75.2471" fill="white" transform="translate(7.34546 14.0706)"/>
</clipPath>
</defs>
</svg>
